<svg width="32" height="32" viewBox="0 0 32 32" fill="none" xmlns="http://www.w3.org/2000/svg">
<g clip-path="url(#clip0_236_869)">
<path d="M15.9999 0.500732C12.9344 0.50075 9.93777 1.40979 7.38892 3.1129C4.84007 4.816 2.8535 7.23667 1.6804 10.0688C0.50731 12.901 0.200387 16.0174 0.79845 19.024C1.39651 22.0306 2.8727 24.7922 5.04032 26.9597C7.20797 29.1275 9.9697 30.6038 12.9763 31.2017C15.9829 31.7997 19.0993 31.4928 21.9314 30.3195C24.7635 29.1465 27.1843 27.16 28.8873 24.611C30.5903 22.0622 31.4993 19.0655 31.4993 16C31.4948 11.8908 29.8603 7.95115 26.9545 5.04548C24.0488 2.1398 20.1092 0.50536 15.9999 0.500732ZM25.8975 22.1982C25.639 22.3115 25.415 22.4914 25.2488 22.7196C25.0828 22.946 24.9808 23.2129 24.9537 23.4924C24.9018 24.0264 24.7372 24.5433 24.4708 25.009C24.2044 25.4748 23.8423 25.8787 23.4083 26.1943C22.9744 26.5098 22.4785 26.7297 21.9533 26.8398C21.4282 26.9495 20.8857 26.9467 20.3616 26.8315C20.0862 26.7727 19.8 26.7875 19.5321 26.8745C19.2642 26.9615 19.0239 27.1175 18.8355 27.327C18.4792 27.727 18.0423 28.047 17.5535 28.2663C17.0648 28.4853 16.5351 28.5985 15.9994 28.5985C15.4638 28.5985 14.9342 28.485 14.4455 28.2658C13.9568 28.0465 13.52 27.7262 13.1638 27.326C12.9748 27.1182 12.735 26.9632 12.4679 26.8765C12.2008 26.7897 11.9157 26.774 11.6406 26.831C11.117 26.9465 10.5747 26.9498 10.0497 26.8403C9.52472 26.731 9.02885 26.5118 8.59478 26.1968C8.16073 25.8818 7.79832 25.4785 7.53147 25.0133C7.26462 24.5482 7.09937 24.0317 7.04662 23.498C7.02062 23.2181 6.91942 22.9505 6.75377 22.7233C6.5869 22.4933 6.36172 22.312 6.10142 22.1979C5.61157 21.9824 5.17277 21.6659 4.81375 21.2691C4.45472 20.8722 4.1836 20.404 4.01807 19.8951C3.85257 19.3862 3.79645 18.848 3.85337 18.3159C3.91027 17.7838 4.07895 17.2697 4.34835 16.8073C4.49155 16.5632 4.56722 16.2854 4.56765 16.0024C4.56807 15.7194 4.49322 15.4413 4.35077 15.1968C4.08055 14.7344 3.91117 14.22 3.85372 13.6875C3.79627 13.155 3.85207 12.6163 4.01747 12.1069C4.18285 11.5975 4.45407 11.1287 4.81335 10.7315C5.1726 10.3342 5.61182 10.0175 6.10212 9.8019C6.3608 9.68863 6.58477 9.50868 6.7511 9.2805C6.91717 9.05422 7.01907 8.78732 7.04607 8.50795C7.09815 7.97407 7.26277 7.45727 7.5291 6.99165C7.79542 6.526 8.15738 6.12208 8.59115 5.8065C9.02493 5.49092 9.52065 5.27085 10.0456 5.1608C10.5706 5.05072 11.113 5.05317 11.637 5.16795C11.9126 5.22825 12.1993 5.2142 12.4677 5.12727C12.7361 5.04033 12.9765 4.8836 13.1644 4.67317C13.5206 4.27317 13.9575 3.95308 14.4463 3.7339C14.9351 3.51475 15.4647 3.40147 16.0003 3.40153C16.536 3.4016 17.0656 3.515 17.5543 3.73428C18.043 3.95355 18.4798 4.27378 18.836 4.67385C19.0246 4.88348 19.2653 5.03953 19.5336 5.12625C19.8019 5.21295 20.0884 5.22725 20.364 5.16768C20.8875 5.0532 21.4292 5.05082 21.9537 5.1607C22.4781 5.2706 22.9734 5.49025 23.4069 5.80522C23.8403 6.1202 24.2022 6.52338 24.4688 6.98822C24.7353 7.45307 24.9004 7.96908 24.9532 8.5023C24.9793 8.7821 25.0805 9.04967 25.2463 9.27672C25.413 9.50675 25.6383 9.6882 25.8983 9.80243C26.3883 10.0178 26.8273 10.3343 27.1863 10.7311C27.5452 11.1279 27.8165 11.5961 27.982 12.1051C28.1475 12.614 28.2035 13.1521 28.1465 13.6842C28.0895 14.2164 27.9208 14.7304 27.6513 15.1928C27.5083 15.4369 27.4327 15.7147 27.4322 15.9976C27.432 16.2805 27.5068 16.5584 27.649 16.803L27.6518 16.8073C27.921 17.2698 28.0898 17.7839 28.1467 18.3161C28.2035 18.8483 28.1473 19.3865 27.9818 19.8955C27.8162 20.4044 27.5447 20.8727 27.1857 21.2695C26.8265 21.6664 26.3875 21.9828 25.8975 22.1982Z" fill="#182C4C"/>
<path d="M25.9655 13.2835C25.9655 12.9728 25.8753 12.6688 25.7053 12.4087C25.5355 12.1485 25.2935 11.9434 25.009 11.8184C24.3927 11.5475 23.8598 11.1171 23.4652 10.5716C23.0674 10.0282 22.824 9.38744 22.7607 8.71707C22.7213 8.32384 22.537 7.95932 22.2438 7.69434C21.9506 7.42939 21.5693 7.28294 21.1741 7.28344C21.0598 7.28292 20.9458 7.29499 20.8342 7.31944C20.1774 7.46207 19.4945 7.42829 18.8549 7.22154C18.2153 7.01482 17.6419 6.64249 17.1928 6.14237C17.0434 5.97347 16.8599 5.83819 16.6543 5.74547C16.4488 5.65274 16.2259 5.60469 16.0005 5.60449C15.775 5.60427 15.552 5.65192 15.3463 5.74424C15.1406 5.83657 14.9568 5.97152 14.8071 6.14012C14.3578 6.64194 13.7833 7.01549 13.1424 7.22269C12.5014 7.42987 11.817 7.46327 11.1589 7.31944C11.0496 7.29489 10.9379 7.28282 10.8259 7.28344C10.4293 7.28277 10.0467 7.42999 9.75283 7.69637C9.45901 7.96272 9.27506 8.32907 9.23691 8.72382C9.17266 9.39329 8.92934 10.0331 8.53249 10.5761C8.13724 11.119 7.60533 11.5476 6.99083 11.8184C6.78438 11.9087 6.59941 12.0418 6.44806 12.2087C6.29671 12.3757 6.18241 12.5728 6.11266 12.787C6.04293 13.0013 6.01936 13.2279 6.04348 13.452C6.06761 13.676 6.13888 13.8925 6.25263 14.087C6.59201 14.6683 6.77066 15.3294 6.77026 16.0025C6.76988 16.6757 6.59046 17.3366 6.25038 17.9175C6.13748 18.1119 6.06689 18.3279 6.04319 18.5514C6.01951 18.7749 6.04328 19.001 6.11298 19.2147C6.18266 19.4284 6.29666 19.625 6.44756 19.7916C6.59843 19.9582 6.78281 20.0911 6.98858 20.1816C7.60511 20.4532 8.13864 20.8834 8.53471 21.4284C8.93151 21.9723 9.17483 22.6128 9.23916 23.2829C9.27791 23.6764 9.46194 24.0414 9.75534 24.3065C10.0487 24.5716 10.4304 24.7178 10.8259 24.7165C10.9394 24.7169 11.0526 24.7049 11.1634 24.6805C11.4287 24.6218 11.6997 24.5924 11.9714 24.5928C12.5067 24.5922 13.036 24.7048 13.5247 24.9232C14.0134 25.1415 14.4504 25.4607 14.8071 25.8597C14.9567 26.028 15.1401 26.1627 15.3454 26.2552C15.5507 26.3475 15.7732 26.3952 15.9983 26.3955C16.2234 26.3957 16.446 26.3482 16.6515 26.2562C16.857 26.1645 17.0407 26.03 17.1905 25.862C17.6394 25.3595 18.2138 24.9854 18.8548 24.7777C19.4958 24.5701 20.1805 24.5366 20.8388 24.6805C20.9488 24.7051 21.0613 24.7172 21.1741 24.7165C21.5701 24.7173 21.9521 24.5703 22.2455 24.3043C22.539 24.0384 22.7226 23.6726 22.7607 23.2784C22.8272 22.6095 23.0705 21.9703 23.4656 21.4265C23.8607 20.8826 24.3934 20.4537 25.009 20.1838C25.2935 20.0581 25.5353 19.8525 25.705 19.592C25.8748 19.3315 25.9653 19.0274 25.9655 18.7164C25.9653 18.4347 25.8898 18.1582 25.7473 17.9152C25.4083 17.3335 25.2298 16.6722 25.2298 15.9989C25.2298 15.3255 25.4083 14.6642 25.7473 14.0825C25.8905 13.8406 25.966 13.5646 25.9655 13.2835ZM21.3941 14.1928L15.7699 19.817C15.6379 19.949 15.4813 20.0537 15.3088 20.1251C15.1364 20.1966 14.9516 20.2333 14.765 20.2333C14.5783 20.2333 14.3935 20.1966 14.2211 20.1251C14.0487 20.0537 13.892 19.949 13.7601 19.817L10.6058 16.6628C10.4737 16.531 10.3688 16.3745 10.2971 16.2021C10.2255 16.0298 10.1885 15.845 10.1883 15.6584C10.1882 15.4718 10.2247 15.2869 10.296 15.1144C10.3673 14.942 10.4719 14.7852 10.6038 14.6532C10.7357 14.5211 10.8923 14.4164 11.0647 14.3449C11.2371 14.2734 11.4219 14.2366 11.6086 14.2366C11.7952 14.2366 11.98 14.2734 12.1524 14.3448C12.3248 14.4163 12.4815 14.521 12.6134 14.653L14.7638 16.8057L19.3866 12.183C19.6531 11.9168 20.0144 11.7673 20.3911 11.7675C20.7678 11.7677 21.129 11.9176 21.3952 12.1841C21.6614 12.4506 21.8109 12.812 21.8107 13.1887C21.8105 13.5654 21.6606 13.9265 21.3941 14.1928Z" fill="#182C4C"/>
</g>
<defs>
<clipPath id="clip0_236_869">
<rect width="32" height="32" fill="white"/>
</clipPath>
</defs>
</svg>
