<svg width="32" height="32" viewBox="0 0 32 32" fill="none" xmlns="http://www.w3.org/2000/svg">
<g clip-path="url(#clip0_236_854)">
<path d="M9.1344 4.73544L9.29847 7.52238C12.7882 4.75104 17.6175 4.39532 21.4755 6.62571C21.629 6.71429 21.7323 6.86944 21.7555 7.04521C21.7786 7.22098 21.7184 7.39758 21.5931 7.52293L20.7944 8.32155L26.7455 7.97197L27.0942 2.02343L26.1324 2.9836C25.9338 3.1811 25.6212 3.20533 25.3948 3.04071C19.3546 -1.3535 11.0698 -0.947919 5.48783 4.01509L8.59846 4.19755C8.88788 4.21482 9.11824 4.4463 9.1344 4.73544Z" fill="#182C4C"/>
<path d="M29.0104 25.3424C33.4054 19.3027 32.9998 11.0171 28.036 5.43542L27.8535 8.54633C27.8363 8.83491 27.6059 9.06528 27.317 9.08199L24.5304 9.24634C27.3014 12.7361 27.6569 17.5651 25.427 21.4234C25.3385 21.5769 25.1833 21.6802 25.0075 21.7033C24.8318 21.7262 24.6552 21.6663 24.5298 21.5406L23.7312 20.742L24.0808 26.6934L30.0321 27.0435L29.0702 26.0819C28.8708 25.8839 28.8455 25.57 29.0104 25.3424Z" fill="#182C4C"/>
<path d="M20.499 14.9854C20.3851 14.4854 20.1868 14.0083 19.913 13.5746C19.7712 13.3492 19.804 13.0556 19.9923 12.8673L20.4898 12.3698L19.6831 11.5631L19.1856 12.0606C18.9973 12.2492 18.7032 12.2821 18.4778 12.1397C18.0441 11.8659 17.567 11.6679 17.067 11.5539C16.8071 11.4949 16.6229 11.2637 16.6232 10.9971V10.2954H15.4823V10.9971C15.4825 11.2637 15.2981 11.4949 15.0382 11.5539C14.5382 11.6679 14.0611 11.8659 13.6276 12.1397C13.402 12.2821 13.1081 12.2492 12.9196 12.0606L12.4221 11.5631L11.6154 12.3698L12.1129 12.8673C12.3014 13.0556 12.3346 13.3498 12.1923 13.5751C11.9182 14.0088 11.7201 14.486 11.6065 14.986C11.5471 15.2459 11.3159 15.43 11.0496 15.4297H10.3479V16.5707H11.0496C11.3159 16.5704 11.5471 16.7548 11.6065 17.0147C11.7201 17.5147 11.9182 17.9919 12.1923 18.4253C12.3346 18.651 12.3014 18.9448 12.1129 19.1334L11.6154 19.6309L12.4221 20.4376L12.9196 19.9401C13.1081 19.7515 13.402 19.7184 13.6276 19.8607C14.0611 20.1348 14.5382 20.3329 15.0382 20.4465C15.2981 20.5058 15.4825 20.7371 15.4823 21.0033V21.705H16.6232V21.0033C16.6229 20.7371 16.8071 20.5058 17.067 20.4465C17.567 20.3329 18.0441 20.1348 18.4778 19.8607C18.7032 19.7184 18.9973 19.7515 19.1856 19.9401L19.6831 20.4376L20.4898 19.6309L19.9923 19.1334C19.804 18.9451 19.7712 18.6515 19.913 18.4259C20.1868 17.9924 20.3851 17.5153 20.499 17.0153C20.5578 16.7554 20.7887 16.571 21.0553 16.5707H21.7575V15.4297H21.0553C20.7887 15.4297 20.5578 15.2453 20.499 14.9854ZM16.0527 18.8526C14.4772 18.8526 13.2003 17.5757 13.2003 16.0002C13.2003 14.425 14.4772 13.1478 16.0527 13.1478C17.628 13.1478 18.9051 14.425 18.9051 16.0002C18.9032 17.5749 17.6271 18.851 16.0527 18.8526Z" fill="#182C4C"/>
<path d="M17.7641 16.0001C17.7641 16.9456 16.9978 17.7116 16.0527 17.7116C15.1072 17.7116 14.3412 16.9456 14.3412 16.0001C14.3412 15.055 15.1072 14.2887 16.0527 14.2887C16.9978 14.2887 17.7641 15.055 17.7641 16.0001Z" fill="#182C4C"/>
<path d="M22.8413 18.7556C23.0569 18.6579 23.3104 18.7033 23.4784 18.8698L24.7907 20.1846C26.5252 16.5617 25.847 12.2444 23.0848 9.32793L19.3619 9.54687C19.3508 9.54743 19.3396 9.54743 19.3282 9.54687C19.0976 9.54687 18.8895 9.40787 18.8015 9.19478C18.7132 8.98168 18.7619 8.73628 18.9249 8.57304L20.2399 7.26105C16.6167 5.52732 12.3 6.2056 9.38295 8.96692L9.60217 12.6898C9.6161 12.926 9.48239 13.1464 9.26651 13.2436C9.05035 13.3405 8.79687 13.294 8.62946 13.1269L7.31746 11.8146C5.58262 15.4375 6.2609 19.7551 9.02306 22.6716L12.7459 22.4523C12.981 22.4398 13.1997 22.5729 13.2966 22.7877C13.3933 23.0025 13.3482 23.2543 13.183 23.4223L11.871 24.7343C15.4942 26.468 19.8109 25.7897 22.7277 23.0287L22.5029 19.3091C22.4898 19.0721 22.6243 18.8517 22.8413 18.7556ZM22.328 17.7116H21.4915C21.3909 18.0303 21.2625 18.3395 21.1076 18.6353L21.7004 19.2275C21.9229 19.4503 21.9229 19.8113 21.7004 20.0342L20.0864 21.6479C19.8636 21.8707 19.5026 21.8707 19.2797 21.6479L18.6875 21.0565C18.3917 21.2111 18.0825 21.3389 17.7641 21.4392V22.2754C17.7641 22.5905 17.5087 22.8459 17.1936 22.8459H14.9117C14.5967 22.8459 14.3412 22.5905 14.3412 22.2754V21.4392C14.0226 21.3389 13.7134 21.2105 13.4175 21.0559L12.8253 21.6479C12.6025 21.8707 12.2415 21.8707 12.0186 21.6479L10.4047 20.0342C10.1821 19.8113 10.1821 19.4503 10.4047 19.2275L10.9963 18.6353C10.8417 18.3392 10.7139 18.0303 10.6136 17.7116H9.77738C9.46234 17.7116 9.2069 17.4562 9.2069 17.1411V14.8592C9.2069 14.5442 9.46234 14.2887 9.77738 14.2887H10.6136C10.7139 13.9703 10.8423 13.6611 10.9969 13.3653L10.4047 12.7731C10.1821 12.5503 10.1821 12.1892 10.4047 11.9664L12.0186 10.3525C12.2415 10.1299 12.6025 10.1299 12.8253 10.3525L13.4175 10.9441C13.7136 10.7895 14.0226 10.6614 14.3412 10.5614V9.72487C14.3412 9.40982 14.5967 9.15439 14.9117 9.15439H17.1936C17.5087 9.15439 17.7641 9.40982 17.7641 9.72487V10.5614C18.0825 10.6616 18.3917 10.7898 18.6875 10.9447L19.2797 10.3525C19.5026 10.1299 19.8636 10.1299 20.0864 10.3525L21.7004 11.9664C21.9229 12.1892 21.9229 12.5503 21.7004 12.7731L21.1082 13.3653C21.263 13.6611 21.3912 13.9703 21.4915 14.2887H22.328C22.643 14.2887 22.8984 14.5442 22.8984 14.8592V17.1411C22.8984 17.4562 22.643 17.7116 22.328 17.7116Z" fill="#182C4C"/>
<path d="M6.67782 10.5774C6.76668 10.4239 6.92155 10.3205 7.0976 10.2974C7.27337 10.2743 7.44969 10.3345 7.57504 10.4598L8.37394 11.2584L8.02407 5.30737L2.07581 4.95862L3.03766 5.92047C3.23515 6.11908 3.25911 6.43162 3.09448 6.65808C-1.30056 12.6977 -0.895264 20.9834 4.06831 26.565L4.2516 23.4541C4.26859 23.1656 4.49896 22.9355 4.78782 22.9185L7.57449 22.7544C4.8037 19.2647 4.44798 14.4354 6.67782 10.5774ZM2.61481 18.7388L1.49725 18.9669C0.925094 16.1877 1.16994 13.3022 2.20171 10.659L3.26468 11.0732C2.31286 13.5119 2.08695 16.1744 2.61481 18.7388ZM3.74769 9.97846L2.72484 9.47289C2.92289 9.07344 3.14351 8.67427 3.37972 8.2868L4.35244 8.88235C4.13405 9.23834 3.93043 9.60687 3.74769 9.97791V9.97846Z" fill="#182C4C"/>
<path d="M22.9709 27.265L22.8066 24.4783C19.3171 27.25 14.4875 27.6054 10.6295 25.375C10.4763 25.2861 10.373 25.1313 10.3501 24.9555C10.327 24.78 10.3869 24.6037 10.512 24.4783L11.3109 23.6794L5.35898 24.0293L5.01106 29.977L5.97291 29.0152C6.17124 28.8177 6.48378 28.7937 6.71053 28.9583C12.7499 33.3539 21.0361 32.9484 26.6175 27.984L23.5066 27.8012C23.218 27.7842 22.9876 27.5536 22.9709 27.265Z" fill="#182C4C"/>
</g>
<defs>
<clipPath id="clip0_236_854">
<rect width="32" height="32" fill="white"/>
</clipPath>
</defs>
</svg>
