<svg width="32" height="32" viewBox="0 0 32 32" fill="none" xmlns="http://www.w3.org/2000/svg">
<path d="M5.94125 2.56006C4.79292 2.56006 3.77933 3.33138 3.47375 4.43881L1.28 12.3938V12.4801C1.28 14.7702 3.14991 16.6401 5.44 16.6401C6.92034 16.6401 8.22113 15.8562 8.95875 14.6851C9.69404 15.858 10.9957 16.6401 12.48 16.6401C13.9643 16.6401 15.266 15.858 16.0012 14.6851C16.7389 15.8562 18.0397 16.6401 19.52 16.6401C21.001 16.6401 22.3025 15.8557 23.04 14.6838C23.7775 15.8557 25.079 16.6401 26.56 16.6401C28.8501 16.6401 30.72 14.7702 30.72 12.4801V12.3938L28.525 4.43881C28.2195 3.33168 27.2063 2.56006 26.0575 2.56006H5.94125ZM5.94125 3.84006H9.505L8.44625 11.5201H2.84875L4.7075 4.78006C4.86143 4.2222 5.36286 3.84006 5.94125 3.84006ZM16.64 3.84006H21.2025L22.2612 11.5201H16.64V3.84006ZM9.6 11.5201H15.36V12.4801C15.36 12.5881 15.3681 12.694 15.3762 12.8001H9.6V12.4801V11.5201ZM23.5537 11.5201H29.1512L29.43 12.5313C29.4283 12.6234 29.4087 12.7103 29.3987 12.8001H23.7125C23.7007 12.6936 23.68 12.5898 23.68 12.4801V12.4363L23.5537 11.5201ZM2.60125 12.8001H8.2875C8.12782 14.244 6.92877 15.3601 5.44 15.3601C3.95218 15.3601 2.76119 14.243 2.60125 12.8001ZM16.7037 12.8001H22.3362C22.1715 14.2385 21.0049 15.3601 19.52 15.3601C18.0351 15.3601 16.8685 14.2385 16.7037 12.8001ZM8.96 16.6238C8.01088 17.4309 6.78336 17.9201 5.44 17.9201C4.3808 17.9201 3.39584 17.6123 2.56 17.0888V27.5201C2.56 28.5786 3.42144 29.4401 4.48 29.4401H27.52C28.5786 29.4401 29.44 28.5786 29.44 27.5201V17.0888C28.6042 17.6123 27.6192 17.9201 26.56 17.9201C25.2166 17.9201 23.9891 17.4309 23.04 16.6238C22.0909 17.4309 20.8634 17.9201 19.52 17.9201C18.1766 17.9201 16.9491 17.4309 16 16.6238C15.0509 17.4309 13.8234 17.9201 12.48 17.9201C11.1366 17.9201 9.90912 17.4309 8.96 16.6238ZM22.72 18.5601C24.0294 18.5601 25.1984 19.1697 25.9612 20.1188L25.045 21.0351C24.5215 20.3138 23.6774 19.8401 22.72 19.8401C21.1322 19.8401 19.84 21.1322 19.84 22.7201C19.84 24.3079 21.1322 25.6001 22.72 25.6001C23.9699 25.6001 25.0257 24.7949 25.4237 23.6801H23.04V22.4001H26.8637C26.8714 22.5063 26.88 22.6119 26.88 22.7201C26.88 25.0138 25.0138 26.8801 22.72 26.8801C20.4262 26.8801 18.56 25.0138 18.56 22.7201C18.56 20.4263 20.4262 18.5601 22.72 18.5601Z" fill="#182C4C"/>
<rect x="5.12" y="18.5601" width="23.04" height="8.96" fill="#182C4C"/>
<path d="M20.352 19.5841C20.256 19.5201 20.16 19.4881 20.064 19.5521C18.688 20.0001 17.28 19.6481 16.224 18.6561C16.096 18.5281 15.904 18.5281 15.776 18.6561C14.72 19.6481 13.312 20.0001 11.936 19.5521C11.84 19.4881 11.744 19.5201 11.648 19.5841C11.584 19.6481 11.52 19.7441 11.52 19.8401C11.52 24.8641 13.728 26.5281 15.872 27.4881C15.904 27.5201 15.968 27.5201 16 27.5201C16.032 27.5201 16.096 27.5201 16.128 27.4881C18.272 26.5281 20.48 24.8641 20.48 19.8401C20.48 19.7441 20.416 19.6481 20.352 19.5841ZM17.824 22.3041L15.904 24.2241C15.84 24.2881 15.776 24.3201 15.68 24.3201C15.584 24.3201 15.52 24.2881 15.456 24.2241L14.496 23.2641C14.368 23.1361 14.368 22.9441 14.496 22.8161C14.624 22.6881 14.816 22.6881 14.944 22.8161L15.68 23.5521L17.376 21.8561C17.504 21.7281 17.696 21.7281 17.824 21.8561C17.952 21.9841 17.952 22.1761 17.824 22.3041Z" fill="#F1F7FF"/>
</svg>
