<svg width="24" height="24" viewBox="0 0 24 24" fill="none" xmlns="http://www.w3.org/2000/svg">
<path fill-rule="evenodd" clip-rule="evenodd" d="M4.75 11.75C4.75 7.74594 7.99594 4.5 12 4.5C16.0041 4.5 19.25 7.74594 19.25 11.75C19.25 15.7541 16.0041 19 12 19C7.99594 19 4.75 15.7541 4.75 11.75ZM12 3C7.16751 3 3.25 6.91751 3.25 11.75C3.25 16.5825 7.16751 20.5 12 20.5C13.8258 20.5 15.521 19.9408 16.9236 18.9843L19.2981 21.3588C19.591 21.6517 20.0659 21.6516 20.3588 21.3588C20.6516 21.0659 20.6517 20.591 20.3588 20.2981L18.0918 18.0311C19.7312 16.4408 20.75 14.2144 20.75 11.75C20.75 6.91751 16.8325 3 12 3Z" fill="#F2F2F2"/>
</svg>
