<svg width="20" height="20" viewBox="0 0 20 20" fill="none" xmlns="http://www.w3.org/2000/svg">
<path fill-rule="evenodd" clip-rule="evenodd" d="M4.08333 9.79167C4.08333 6.52398 6.73231 3.875 9.99999 3.875C13.2677 3.875 15.9167 6.52398 15.9167 9.79167C15.9167 13.0594 13.2677 15.7083 9.99999 15.7083C6.73231 15.7083 4.08333 13.0594 4.08333 9.79167ZM9.99999 2.375C5.90388 2.375 2.58333 5.69555 2.58333 9.79167C2.58333 13.8878 5.90388 17.2083 9.99999 17.2083C11.5105 17.2083 12.9154 16.7568 14.0874 15.9814L15.9934 17.8874C16.2862 18.1802 16.7611 18.1802 17.054 17.8874C17.3469 17.5945 17.3469 17.1196 17.054 16.8267L15.2539 15.0265C16.5904 13.6851 17.4167 11.8349 17.4167 9.79167C17.4167 5.69555 14.0961 2.375 9.99999 2.375Z" fill="#F2F2F2"/>
</svg>
