<svg width="32" height="32" viewBox="0 0 32 32" fill="none" xmlns="http://www.w3.org/2000/svg">
<path d="M6.40002 9.60007C7.57799 9.60007 8.5834 9.18356 9.41655 8.35018C10.25 7.51686 10.6667 6.51116 10.6667 5.33342C10.6667 4.1558 10.25 3.15009 9.41655 2.31666C8.5834 1.48334 7.57793 1.06659 6.40002 1.06659C5.22216 1.06659 4.21669 1.48334 3.38337 2.31666C2.55011 3.15009 2.13336 4.15556 2.13336 5.33342C2.13336 6.51139 2.55011 7.51686 3.38337 8.35018C4.21669 9.18333 5.22216 9.60007 6.40002 9.60007Z" fill="#182C4C"/>
<path d="M11.475 16.2589C12.725 17.5085 14.2331 18.1335 16 18.1335C17.767 18.1335 19.2751 17.5085 20.5251 16.2589C21.7748 15.0084 22.3999 13.5001 22.3999 11.7335C22.3999 9.96684 21.7748 8.45857 20.5251 7.20851C19.2751 5.95844 17.767 5.3334 16 5.3334C14.2331 5.3334 12.7248 5.95855 11.475 7.20851C10.2251 8.4584 9.59991 9.96666 9.59991 11.7335C9.59991 13.5004 10.2251 15.0086 11.475 16.2589Z" fill="#182C4C"/>
<path d="M25.6005 9.60007C26.7779 9.60007 27.7835 9.18356 28.6168 8.35018C29.4501 7.51686 29.8666 6.51116 29.8666 5.33342C29.8666 4.1558 29.4501 3.15009 28.6168 2.31666C27.7836 1.48334 26.7779 1.06659 25.6005 1.06659C24.4222 1.06659 23.4168 1.48334 22.5835 2.31666C21.7504 3.15009 21.3337 4.15556 21.3337 5.33342C21.3337 6.51139 21.7504 7.51686 22.5835 8.35018C23.4168 9.18333 24.4222 9.60007 25.6005 9.60007Z" fill="#182C4C"/>
<path d="M29.9331 9.60031C29.8668 9.60031 29.6251 9.71701 29.2084 9.95033C28.7921 10.1838 28.2501 10.4199 27.5836 10.6588C26.9172 10.8975 26.2557 11.017 25.6005 11.017C24.8557 11.017 24.1174 10.8894 23.3837 10.6337C23.4389 11.0446 23.4669 11.4114 23.4669 11.7336C23.4669 13.2781 23.0168 14.7002 22.1164 16.0003C23.9168 16.056 25.3887 16.767 26.5336 18.134H28.7668C29.6778 18.134 30.4445 17.9085 31.0666 17.4586C31.6887 17.0089 32 16.3503 32 15.4838C32.0002 11.5612 31.3116 9.60008 29.9331 9.60031Z" fill="#182C4C"/>
<path d="M27.4424 23.0752C27.3257 22.4251 27.1783 21.8222 27.0005 21.2668C26.8227 20.711 26.5838 20.1697 26.2842 19.6418C25.9841 19.1145 25.6395 18.6641 25.2506 18.2918C24.8614 17.9194 24.3863 17.6225 23.8254 17.4C23.2644 17.1778 22.6447 17.0668 21.9671 17.0668C21.8558 17.0668 21.6171 17.1863 21.2503 17.4252C20.8836 17.6639 20.4784 17.9311 20.0337 18.2251C19.5892 18.5191 18.9953 18.786 18.2503 19.025C17.5053 19.2639 16.7554 19.3834 16.0003 19.3834C15.2448 19.3834 14.4947 19.2639 13.7502 19.025C13.0056 18.786 12.4113 18.5191 11.9668 18.2251C11.5222 17.9311 11.1168 17.6639 10.7502 17.4252C10.3834 17.1863 10.1447 17.0668 10.0334 17.0668C9.35572 17.0668 8.7363 17.1778 8.17513 17.4C7.61396 17.6225 7.13901 17.9194 6.75016 18.2918C6.36097 18.6637 6.01684 19.1145 5.71661 19.6418C5.41673 20.1697 5.17786 20.711 5.00005 21.2668C4.82229 21.8222 4.67524 22.4251 4.55837 23.0752C4.44162 23.7252 4.36392 24.3305 4.32504 24.8919C4.2861 25.4531 4.26672 26.0282 4.26672 26.6171C4.26672 27.9502 4.67215 29.0032 5.48322 29.7752C6.2946 30.5471 7.37245 30.9335 8.71662 30.9335H23.2835C24.6278 30.9335 25.7055 30.5471 26.5171 29.7752C27.3282 29.0032 27.7337 27.9502 27.7337 26.6171C27.7337 26.0282 27.7142 25.4532 27.6758 24.8919C27.6363 24.3305 27.5586 23.7252 27.4424 23.0752Z" fill="#182C4C"/>
<path d="M9.88326 16.0002C8.98321 14.7002 8.53331 13.278 8.53348 11.7335C8.53348 11.4113 8.56133 11.0448 8.61679 10.6336C7.88335 10.8891 7.14448 11.017 6.40001 11.017C5.74445 11.017 5.08351 10.8975 4.41674 10.6588C3.75026 10.4199 3.20841 10.1837 2.7919 9.95027C2.37521 9.71694 2.13336 9.60025 2.06675 9.60025C0.688897 9.60031 0 11.5615 0 15.4837C0 16.3502 0.311145 17.0089 0.93326 17.4586C1.55555 17.9085 2.32226 18.1336 3.2331 18.1336H5.46658C6.61116 16.7669 8.08317 16.0559 9.88326 16.0002Z" fill="#182C4C"/>
</svg>
